# xmcd
#
# Track frame offsets:
#	150
#	10241
#	21410
#	31062
#	42348
#	53746
#	62836
#	72536
#	83007
#	94798
#	104765
#	116745
#	127796
#	138416
#	152090
#	162603
#	173045
#	182859
#	192833
#	202699
#	213954
#	225765
#	237279
#	248646
#	259922
#	270490
#	279302
#	290724
#	302539
#	314038
#
# Disc length: 4325 seconds
#
# Revision: 1
# Processed by: cddbd v1.5.1PL0 Copyright (c) Steve Scherf et al.
# Submitted via: audiograbber 1.82.02
#
DISCID=a710e31e
DTITLE=Hank Snow - The Hank Snow Collection CD 10
DYEAR=1900
DGENRE=Country
TTITLE0=Music Makin' Mama
TTITLE1=The Highest Bidder
TTITLE2=The Gold Rush Is Over
TTITLE3=Love Game Of Lets Pretend
TTITLE4=Blue Bird Island
TTITLE5=Trial Of A Broken Heart
TTITLE6=Lady's Man
TTITLE7=Now and Then Thers A Fool Such As I
TTITLE8=Why Do You Punish Me
TTITLE9=A Chick in Chattanooga
TTITLE10=The Greatest Sin
TTITLE11=Married By The Bible
TTITLE12=Ther Wasn't An Organ At Our Wedding
TTITLE13=On That Old Hawiian Shore
TTITLE14=Moanin
TTITLE15=I Knew That We'd Meet Again
TTITLE16=Pray
TTITLE17=Thes Things Shall Pass
TTITLE18=He'll Understand
TTITLE19=I'll Just Telephone Upstairs
TTITLE20=I'm In Love With Jesus
TTITLE21=Honeymoon on a Rocket Ship
TTITLE22=Between Fire And Water
TTITLE23=The Boogie Flying Cloud
TTITLE24=I Can't Control My Heart
TTITLE25=For Now And Always
TTITLE26=From The Trade Winds
TTITLE27=I Traded Love
TTITLE28=Why Did You Give Me Your Love
TTITLE29=Mississippi River Blues
EXTD=
EXTT0=
EXTT1=
EXTT2=
EXTT3=
EXTT4=
EXTT5=
EXTT6=
EXTT7=
EXTT8=
EXTT9=
EXTT10=
EXTT11=
EXTT12=
EXTT13=
EXTT14=
EXTT15=
EXTT16=
EXTT17=
EXTT18=
EXTT19=
EXTT20=
EXTT21=
EXTT22=
EXTT23=
EXTT24=
EXTT25=
EXTT26=
EXTT27=
EXTT28=
EXTT29=
PLAYORDER=
